<svg id="be994f86-3009-41a2-b35f-e9b9baefe932" data-name="Layer 1" xmlns="http://www.w3.org/2000/svg" width="865.76" height="682.89" viewBox="0 0 865.76 682.89"><rect x="296.72" y="640.44" width="120.55" height="11.78" fill="#d1d3d4"/><rect x="400.35" y="640.44" width="16.92" height="11.78" opacity="0.2"/><path d="M201.16,663.58l6.11-123.32-86.72-6.09S102.84,656.92,98.39,663.58h8.72s17.83-92.09,17.83-114L200,548.2l-4.76,115.38Z" fill="#bcbec0"/><rect x="347.78" y="434.1" width="10.36" height="209.66" fill="#d1d3d4"/><path d="M285.11,576.92l-11.4,28.17a19.35,19.35,0,0,0,.73,16.11L287,645.63s-18.53,5.23-36.59-36.59c.47-2.38,0-39.93,0-39.93Z" fill="#f9b499"/><path d="M358.37,558.59l38.12,88.63s-21.74-4.76-38.12-35.81l-31.22-33.82Z" fill="#f9b499"/><rect x="122.67" y="361.17" width="38.56" height="35.54" fill="#3f3d56"/><path d="M234.73,457.46s-3.62-47.35-7.36-55.89H215.84l6.53,6.95v33S219.73,459.68,234.73,457.46Z" fill="#d1d3d4"/><path d="M174.82,413.61l16.46,104.63-59,.91s4.73-78.25,3.84-98.86Z" fill="#e6e7e8"/><path d="M132.28,519.15s9.11-83.26,0-149.66l-25.2,1.18s19.49,87.93,9.27,135.7c0,0-8.54,26.11,9.79,34.45l132.21,5s2.78-29.45-17.78-28.34Z" fill="#d1d3d4"/><path d="M548.09,352.21H313.24a11.79,11.79,0,0,1-11.78-11.78V107.59A11.8,11.8,0,0,1,313.24,95.8H548.09a11.8,11.8,0,0,1,11.79,11.79V340.43A11.8,11.8,0,0,1,548.09,352.21Zm-234.85-255a10.39,10.39,0,0,0-10.37,10.38V340.43a10.38,10.38,0,0,0,10.37,10.37H548.09a10.39,10.39,0,0,0,10.38-10.37V107.59a10.4,10.4,0,0,0-10.38-10.38Z" fill="#d1d3d4"/><path d="M647.79,337.81v18.12H557.26a3.32,3.32,0,0,1-3.33-3.32V341.13a3.32,3.32,0,0,1,3.33-3.32Z" fill="#ccc"/><path d="M647.79,356.64h-91a3.53,3.53,0,0,1-3.52-3.53V340.63a3.53,3.53,0,0,1,3.52-3.53h91v1.41h-91a2.12,2.12,0,0,0-2.11,2.12v12.48a2.12,2.12,0,0,0,2.11,2.12h91Z" fill="#bcbec0"/><path d="M673.63,379.7h-111a4.11,4.11,0,0,1-4.14-4.07V360.71a4.11,4.11,0,0,1,4.14-4.07h111v1.41h-111a2.69,2.69,0,0,0-2.73,2.66v14.92a2.69,2.69,0,0,0,2.73,2.66h111Z" fill="#d1d3d4"/><polygon points="582.23 374.82 582.23 364.44 595.07 364.44 595.07 375.17 588.65 369.81 582.23 374.82" fill="#bcbec0"/><rect x="573.77" y="363.74" width="33.08" height="1.41" fill="#ccc"/><path d="M677.91,409.71H603.53c-1.92,0-3.37-3.86-3.37-6.36V384.27c0-2.86,1.3-5,3-5h74.73v1.41H603.18c-.76,0-1.61,1.54-1.61,3.6v19.08c0,2.36,1.38,4.95,2,4.95h74.38Z" fill="#bcbec0"/><polygon points="619.09 397.84 619.09 387.77 634.8 387.77 634.8 397.84 626.95 392.81 619.09 397.84" fill="#bcbec0"/><path d="M542.75,405.72V383.46a4,4,0,0,1,3.93-4l58.05-.21s-3.83.21-3.87,5.89l.09,19.29s-.13,5.27,4.1,5.27H546.68A4,4,0,0,1,542.75,405.72Z" fill="#bcbec0"/><rect x="615.57" y="337.81" width="32.23" height="18.13" opacity="0.2"/><ellipse cx="647.79" cy="229.03" rx="19.34" ry="11.7" fill="#bcbec0"/><rect x="352.92" y="488.72" width="275.54" height="6.69" fill="#d1d3d4"/><rect x="627.05" y="434.1" width="10.36" height="209.66" fill="#d1d3d4"/><rect x="380.21" y="380.91" width="34.34" height="25.78" fill="#2f2e41"/><rect x="281.92" y="217.33" width="231.19" height="167.17" fill="#2f2e41"/><rect x="289.27" y="225.79" width="216.72" height="152.3" fill="#fff"/><rect x="323.92" y="243.14" width="29" height="29" rx="6" fill="#d1d3d4"/><polygon points="338.43 267.24 327.8 254.06 328.89 253.17 338.4 264.96 355.58 242.71 356.7 243.57 338.43 267.24" fill="#bcbec0"/><rect x="362.29" y="244.25" width="40.48" height="1.41" fill="#d1d3d4"/><rect x="362.79" y="253.92" width="66.57" height="1.41" fill="#d1d3d4"/><rect x="439.43" y="253.92" width="31.92" height="1.41" fill="#d1d3d4"/><rect x="362.79" y="262.38" width="26.69" height="1.41" fill="#d1d3d4"/><rect x="396.53" y="262.38" width="51.87" height="1.41" fill="#d1d3d4"/><rect x="323.92" y="288.14" width="29" height="29" rx="6" fill="#d1d3d4"/><polygon points="338.43 312.24 327.8 299.06 328.89 298.17 338.4 309.97 355.58 287.71 356.7 288.57 338.43 312.24" fill="#bcbec0"/><rect x="362.29" y="289.25" width="40.48" height="1.41" fill="#d1d3d4"/><rect x="362.79" y="298.92" width="66.57" height="1.41" fill="#d1d3d4"/><rect x="439.43" y="298.92" width="31.92" height="1.41" fill="#d1d3d4"/><rect x="362.79" y="307.38" width="26.69" height="1.41" fill="#d1d3d4"/><rect x="396.53" y="307.38" width="51.87" height="1.41" fill="#d1d3d4"/><rect x="323.8" y="333.14" width="29" height="29" rx="6" fill="#d1d3d4"/><polygon points="338.31 357.24 327.68 344.06 328.78 343.18 338.29 354.97 355.47 332.71 356.58 333.57 338.31 357.24" fill="#bcbec0"/><rect x="362.17" y="334.25" width="40.48" height="1.41" fill="#d1d3d4"/><rect x="362.67" y="343.92" width="66.57" height="1.41" fill="#d1d3d4"/><rect x="439.31" y="343.92" width="31.92" height="1.41" fill="#d1d3d4"/><rect x="362.67" y="352.38" width="26.69" height="1.41" fill="#d1d3d4"/><rect x="396.41" y="352.38" width="51.86" height="1.41" fill="#d1d3d4"/><rect x="362.67" y="401.45" width="72.02" height="8.26" fill="#2f2e41"/><rect x="393.23" y="401.45" width="41.47" height="8.26" opacity="0.2"/><rect x="271.95" y="409.71" width="435.46" height="15.11" fill="#ccc"/><rect x="286.75" y="425.26" width="406.96" height="17.69" fill="#d1d3d4"/><rect x="286.75" y="425.26" width="145.02" height="17.69" opacity="0.2"/><rect x="271.95" y="409.71" width="159.82" height="15.11" opacity="0.2"/><rect x="575.99" y="640.44" width="120.55" height="11.78" fill="#d1d3d4"/><rect x="679.62" y="640.44" width="16.92" height="11.78" opacity="0.2"/><path d="M744.88,632.88h-2.82V133A47,47,0,1,0,648,133V166.1h-2.82V133a49.85,49.85,0,1,1,99.7,0Z" fill="#bcbec0"/><path d="M683,231.8H612.12V206.54a24.77,24.77,0,0,1,24.77-24.77h0v-8.26a9.71,9.71,0,0,1,9.71-9.71h0a9.71,9.71,0,0,1,9.72,9.71v8.74h1.94A24.77,24.77,0,0,1,683,207Z" fill="#d1d3d4"/><circle cx="265.6" cy="73.04" r="54.68" fill="#bcbec0"/><path d="M236,71.12l18.15,25.33a6.66,6.66,0,0,0,10.59.3l35.5-44a4,4,0,0,0,.12-4.84h0a4,4,0,0,0-6.31-.18L262.43,86.51a3,3,0,0,1-4.8-.24L244,65.62a4.85,4.85,0,0,0-7-1.18h0A4.86,4.86,0,0,0,236,71.12Z" fill="#fff"/><path d="M711.86,640.44H776a9.5,9.5,0,0,1,9.5,9.5v5.36a0,0,0,0,1,0,0H702.36a0,0,0,0,1,0,0v-5.36A9.5,9.5,0,0,1,711.86,640.44Z" fill="#d1d3d4"/><path d="M741.57,620.5h2.76a22.58,22.58,0,0,1,22.58,22.58v1.38a0,0,0,0,1,0,0H719a0,0,0,0,1,0,0v-1.38a22.58,22.58,0,0,1,22.58-22.58Z" fill="#d1d3d4"/><ellipse cx="174.82" cy="303.41" rx="20.77" ry="30.52" transform="translate(-112.46 103.19) rotate(-25.18)" fill="#f9b499"/><path d="M80.26,369.49c0-.06.12,0,.18,0a8.09,8.09,0,0,0,7.48-9.42c-1.75-10.58,2.94-12.8,5-13.27a15.51,15.51,0,0,0,4.31-1.63c5.29-3,4.43-6.81,4.43-6.81-3-23.82,7.92-28,10.22-28.66.68-.18,1.35-.36,2-.58a21.83,21.83,0,0,0,14.86-18.52c-27.33-6.42-12.36-30.42-12.36-30.42,19-16.88,32.09,6.41,32.09,6.41,37.07-11.64,40.78,20.64,40.78,20.64s-9.47-5-14.43-4.24c0,0-1.93,16.51-17.23,25.37,0,0-2.19-1.27-3.39.35,0,0,5.76,14.63,16.29,20.36l2.69,18.09s-23.05,7.13-27.33,22.34H132.31l-25.2,1.18,4.76,20s-14.74-3.09-18.06-8.56c0,0,2.61-8.32,1.42-11.64,0,0-4.28,5.46-5.94,7.36C89.29,377.8,84.3,378,80.26,369.49Z" fill="#2f2e41"/><path d="M242.81,233.08V242H224.75v-8.87s-12,1.26-10.46-18.7c0,0,.32-8.87,8.24-9.19,0,0,23.86-5.07,25.72,8.24C248.25,213.43,250.73,229,242.81,233.08Z" fill="#f9b499"/><path d="M134.75,381.94l-2.44-12.45s12.24-13.72,0-25.91c0,0-4.67-10.28-19.45-.5a11.65,11.65,0,0,0-4.56,13.7c2.69,7.35,7.3,18.52,13.38,27.94Z" fill="#f9b499"/><path d="M228.48,453.55l59.9,6.72c41.1,0,45.55,29.44,45.55,29.44l24.44,68.88L320,581.92s-8.89,3.89-17.78-46.66" fill="#2f2e41"/><path d="M228.48,453.55l59.9,6.72c41.1,0,45.55,29.44,45.55,29.44l24.44,68.88L320,581.92s-8.89,3.89-17.78-46.66" opacity="0.2"/><path d="M242.27,460.27,285,466.38c40.55,2.22,36.67,25.55,36.67,25.55,4.38,24.74-31.67,85-31.67,85H242.27l20-59.15s-79.36,5-86.13-2.23c0,0-27.8-17.93-5.26-70.8,0,0,17.23,9.1,52.92-6C223.8,438.72,218.24,456.83,242.27,460.27Z" fill="#2f2e41"/><path d="M287,645.63c19.8-3.86,19,18,19,18s-42.3,7.72-49.91-20.8h-3.33v21.75h-2.37s-5.74-32.21-8.81-38.86c0,0-2.12-5.7,8.81-16.63C250.42,609,267.53,649.44,287,645.63Z" fill="#c66ce4"/><path d="M363.54,644.05s10.77,19.1,14.26,19.53h36.75s-2.53-17-18.06-16.36c0,0-24.28-6.66-38.12-35.81,0,0-4.89,3.72-6.61,12a20.1,20.1,0,0,0,.56,10.18c2.25,7,6.94,22.88,6.05,30h3.45Z" fill="#c66ce4"/><ellipse cx="158.85" cy="315.32" rx="4.9" ry="8.09" transform="translate(-152.37 148.59) rotate(-35.08)" fill="#f9b499"/><path d="M134.75,460.27l57.06,3.38a17.27,17.27,0,0,1,15.46,17.18v39.54h-9l-.42-28.57a12.41,12.41,0,0,0-12.64-12.41l-50.84.93Z" fill="#d1d3d4"/><path d="M244.4,239.73S260.56,324,226.65,364.89c0,0,13.94,23.13-2.85,40.88v33s-30.42,14.58-52.92,6l-2.2-26s-18.41,41.82-33.93,23.45c0,0-18.37-31.37-18.37-61.16l20.92-3.8,8.55,19.64v-27.4s2.67-10.79,15.4-16.95l34-9,5.94-5.94S226.65,311,221.9,239.73Z" fill="#c66ce4"/><path d="M201.22,337.64s7.37,16.64,0,25.19l-10-1.66,4-17.59Z" fill="#c66ce4"/><path d="M201.22,337.64s7.37,16.64,0,25.19l-10-1.66,4-17.59Z" fill="#fff" opacity="0.2"/><path d="M182,374.24s10-7.37,9.26-13.07c0,0-13.86-2.6-22.56-12.33a19.4,19.4,0,0,0-4.25,1.61,18.84,18.84,0,0,0-3.18,2.09C161.61,354.77,162.31,357.39,182,374.24Z" fill="#c66ce4"/><path d="M182,374.24s10-7.37,9.26-13.07c0,0-13.86-2.6-22.56-12.33a19.4,19.4,0,0,0-4.25,1.61,18.84,18.84,0,0,0-3.18,2.09C161.61,354.77,162.31,357.39,182,374.24Z" fill="#fff" opacity="0.2"/><path d="M187.2,327.9a32,32,0,0,0,8.08,15.68l-4,17.59s-14.7-3-22.56-12.33l1.81-19.78S180.79,332.65,187.2,327.9Z" fill="#f9b499"/><path d="M189.79,335.58l-2-4.55s-10.74,3.18-17.31-2C170.49,329.06,175.73,336.89,189.79,335.58Z" fill="#f4a48e"/></svg>